<svg width="600" height="360" xmlns="http://www.w3.org/2000/svg"> <rect width="100%" height="100%" fill="#FEFEFE" />
<line x1="70" y1="260" x2="530" y2="260" stroke="#9f9f9f" stroke-width="1" />
<rect x="70" y="87" width="460" height="173" fill="#FEFEFE" />
<text text-anchor="middle" x="300.0" y="20" font-family="'Helvetica Neue', Arial, sans-serif" font-weight="bold" font-size="22" fill="#000000">Milk consumption</text>
<text text-anchor="middle" x="300.0" y="42" font-family="'Helvetica Neue', Arial, sans-serif" font-size="14" fill="#000000">correlates with</text>
<text text-anchor="middle" x="300.0" y="68" font-family="'Helvetica Neue', Arial, sans-serif" font-weight="bold" font-size="22" fill="#ba0f27">The divorce rate in Colorado</text>
<text text-anchor="start" x="23" y="305.3333333333333" font-family="'Helvetica Neue', Arial, sans-serif" font-size="14" fill="#9f9f9f">Per capita consumption of Fluid beverage milk in the US &#183; Source: USDA</text>
<text text-anchor="start" x="23" y="328.66666666666663" font-family="'Helvetica Neue', Arial, sans-serif" font-size="14" fill="#9f9f9f">The divorce rate in Colorado &#183; Source: CDC National Vital Statistics</text>
<text text-anchor="start" x="23" y="351.99999999999994" font-family="'Helvetica Neue', Arial, sans-serif" font-size="14" fill="#9f9f9f">1999-2021, r=0.965, r&#178;=0.932, p&lt;0.01  &#183;  tylervigen.com/spurious/correlation/1038</text>
<polyline points="5,300.66666666666663 20,300.66666666666663" style="fill:none;stroke:#000000;stroke-width:2" stroke-dasharray="3,1" />
<polygon points="3.0200000000000005,300.66666666666663 5,298.6866666666666 6.9799999999999995,300.66666666666663 5,302.64666666666665" stroke="#F7F7F7" stroke-width="1.65" fill="#F7F7F7"  />
<polygon points="3.0200000000000005,300.66666666666663 5,298.6866666666666 6.9799999999999995,300.66666666666663 5,302.64666666666665" stroke="#000000" stroke-width="1.65" fill="#000000"  />
<polyline points="5,323.99999999999994 20,323.99999999999994" style="fill:none;stroke:#ba0f27;stroke-width:2" />
<circle cx="5" cy="323.99999999999994" r="1.65" stroke="#F7F7F7" stroke-width="1.65" fill="#F7F7F7" />
<circle cx="5" cy="323.99999999999994" r="1.65" stroke="#ba0f27" stroke-width="1.65" fill="#ba0f27"  />
<text x="5" y="178.5" transform="rotate(270 5 173.5)" text-anchor="middle" fill="#000000" font-family="'Helvetica Neue', Arial, sans-serif" font-size="14" dominant-baseline="central">Pounds per person</text>
<text x="173.5" y="-389" transform="rotate(90 100 100)" text-anchor="middle" fill="#ba0f27" font-family="'Helvetica Neue', Arial, sans-serif" font-size="14" dominant-baseline="central">Divorce rate</text>
<line x1="71" y1="93.65" x2="528" y2="93.65" stroke="#F3F3F3" stroke-width="1" fill="#FEFEFE" />
<text text-anchor="end" x="62" y="98.31666666666668" font-family="'Helvetica Neue', Arial, sans-serif" font-size="12" fill="#000000">197.0</text>
<text text-anchor="start" x="538" y="98.31666666666668" font-family="'Helvetica Neue', Arial, sans-serif" font-size="12" fill="#ba0f27">4.8</text>
<line x1="71" y1="133.575" x2="528" y2="133.575" stroke="#F3F3F3" stroke-width="1" fill="#FEFEFE" />
<text text-anchor="end" x="62" y="138.24166666666665" font-family="'Helvetica Neue', Arial, sans-serif" font-size="12">181.2</text>
<text text-anchor="start" x="538" y="138.24166666666665" font-family="'Helvetica Neue', Arial, sans-serif" font-size="12" fill="#ba0f27">4.33</text>
<line x1="71" y1="173.5" x2="528" y2="173.5" stroke="#F3F3F3" stroke-width="1" fill="#FEFEFE" />
<text text-anchor="end" x="62" y="178.16666666666666" font-family="'Helvetica Neue', Arial, sans-serif" font-size="12">165.5</text>
<text text-anchor="start" x="538" y="178.16666666666666" font-family="'Helvetica Neue', Arial, sans-serif" font-size="12" fill="#ba0f27">3.85</text>
<line x1="71" y1="213.425" x2="528" y2="213.425" stroke="#F3F3F3" stroke-width="1" fill="#FEFEFE" />
<text text-anchor="end" x="62" y="218.09166666666667" font-family="'Helvetica Neue', Arial, sans-serif" font-size="12">149.8</text>
<text text-anchor="start" x="538" y="218.09166666666667" font-family="'Helvetica Neue', Arial, sans-serif" font-size="12" fill="#ba0f27">3.38</text>
<line x1="71" y1="253.35" x2="528" y2="253.35" stroke="#F3F3F3" stroke-width="1" fill="#FEFEFE" />
<text text-anchor="end" x="62" y="258.01666666666665" font-family="'Helvetica Neue', Arial, sans-serif" font-size="12">134.0</text>
<text text-anchor="start" x="538" y="258.01666666666665" font-family="'Helvetica Neue', Arial, sans-serif" font-size="12" fill="#ba0f27">2.9</text>
<polyline points="76.65,260 76.65,266" style="fill:none;stroke:#000000;stroke-width:1" />
<polyline points="137.56363636363636,260 137.56363636363636,266" style="fill:none;stroke:#000000;stroke-width:1" />
<polyline points="198.47727272727275,260 198.47727272727275,266" style="fill:none;stroke:#000000;stroke-width:1" />
<polyline points="259.3909090909091,260 259.3909090909091,266" style="fill:none;stroke:#000000;stroke-width:1" />
<polyline points="320.30454545454546,260 320.30454545454546,266" style="fill:none;stroke:#000000;stroke-width:1" />
<polyline points="381.21818181818185,260 381.21818181818185,266" style="fill:none;stroke:#000000;stroke-width:1" />
<polyline points="442.1318181818182,260 442.1318181818182,266" style="fill:none;stroke:#000000;stroke-width:1" />
<polyline points="503.0454545454545,260 503.0454545454545,266" style="fill:none;stroke:#000000;stroke-width:1" />
<text text-anchor="middle" x="76.65" y="281" font-weight="bold" font-family="'Helvetica Neue', Arial, sans-serif" font-size="14">1999</text>
<text text-anchor="middle" x="137.56363636363636" y="281" font-weight="bold" font-family="'Helvetica Neue', Arial, sans-serif" font-size="14">2002</text>
<text text-anchor="middle" x="198.47727272727275" y="281" font-weight="bold" font-family="'Helvetica Neue', Arial, sans-serif" font-size="14">2005</text>
<text text-anchor="middle" x="259.3909090909091" y="281" font-weight="bold" font-family="'Helvetica Neue', Arial, sans-serif" font-size="14">2008</text>
<text text-anchor="middle" x="320.30454545454546" y="281" font-weight="bold" font-family="'Helvetica Neue', Arial, sans-serif" font-size="14">2011</text>
<text text-anchor="middle" x="381.21818181818185" y="281" font-weight="bold" font-family="'Helvetica Neue', Arial, sans-serif" font-size="14">2014</text>
<text text-anchor="middle" x="442.1318181818182" y="281" font-weight="bold" font-family="'Helvetica Neue', Arial, sans-serif" font-size="14">2017</text>
<text text-anchor="middle" x="503.0454545454545" y="281" font-weight="bold" font-family="'Helvetica Neue', Arial, sans-serif" font-size="14">2020</text>
<polyline points="76.65,93.65 96.95454545454547,102.07557322387648" style="fill:none;stroke:#ba0f27;stroke-width:2"  />
<polyline points="96.95454545454547,102.07557322387648 117.25909090909092,102.07557322387648" style="fill:none;stroke:#ba0f27;stroke-width:2"  />
<polyline points="117.25909090909092,102.07557322387648 137.56363636363636,102.07557322387648" style="fill:none;stroke:#ba0f27;stroke-width:2"  />
<polyline points="137.56363636363636,102.07557322387648 157.86818181818182,135.7778661193825" style="fill:none;stroke:#ba0f27;stroke-width:2"  />
<polyline points="157.86818181818182,135.7778661193825 178.1727272727273,127.35229289550597" style="fill:none;stroke:#ba0f27;stroke-width:2"  />
<polyline points="178.1727272727273,127.35229289550597 198.47727272727275,127.35229289550597" style="fill:none;stroke:#ba0f27;stroke-width:2"  />
<polyline points="198.47727272727275,127.35229289550597 218.78181818181818,118.9267196716295" style="fill:none;stroke:#ba0f27;stroke-width:2"  />
<polyline points="218.78181818181818,118.9267196716295 239.08636363636364,127.35229289550597" style="fill:none;stroke:#ba0f27;stroke-width:2"  />
<polyline points="239.08636363636364,127.35229289550597 259.3909090909091,135.7778661193825" style="fill:none;stroke:#ba0f27;stroke-width:2"  />
<polyline points="259.3909090909091,135.7778661193825 279.6954545454546,135.7778661193825" style="fill:none;stroke:#ba0f27;stroke-width:2"  />
<polyline points="279.6954545454546,135.7778661193825 300.0,135.7778661193825" style="fill:none;stroke:#ba0f27;stroke-width:2"  />
<polyline points="300.0,135.7778661193825 320.30454545454546,127.35229289550597" style="fill:none;stroke:#ba0f27;stroke-width:2"  />
<polyline points="320.30454545454546,127.35229289550597 340.6090909090909,135.7778661193825" style="fill:none;stroke:#ba0f27;stroke-width:2"  />
<polyline points="340.6090909090909,135.7778661193825 360.91363636363633,154.8567341275285" style="fill:none;stroke:#ba0f27;stroke-width:2"  />
<polyline points="360.91363636363633,154.8567341275285 381.21818181818185,172.2943004716633" style="fill:none;stroke:#ba0f27;stroke-width:2"  />
<polyline points="381.21818181818185,172.2943004716633 401.52272727272725,184.22069937006046" style="fill:none;stroke:#ba0f27;stroke-width:2"  />
<polyline points="401.52272727272725,184.22069937006046 421.82727272727277,197.59966709225395" style="fill:none;stroke:#ba0f27;stroke-width:2"  />
<polyline points="421.82727272727277,197.59966709225395 442.1318181818182,229.61431767101752" style="fill:none;stroke:#ba0f27;stroke-width:2"  />
<polyline points="442.1318181818182,229.61431767101752 462.4363636363637,222.25794968925092" style="fill:none;stroke:#ba0f27;stroke-width:2"  />
<polyline points="462.4363636363637,222.25794968925092 482.7409090909091,220.79189994829642" style="fill:none;stroke:#ba0f27;stroke-width:2"  />
<polyline points="482.7409090909091,220.79189994829642 503.0454545454545,253.35" style="fill:none;stroke:#ba0f27;stroke-width:2"  />
<polyline points="503.0454545454545,253.35 523.35,241.1531402011164" style="fill:none;stroke:#ba0f27;stroke-width:2"  />
<circle cx="76.65" cy="93.65" r="1.65" stroke="#F7F7F7" stroke-width="1.65" fill="#F7F7F7" />
<circle cx="76.65" cy="93.65" r="1.65" stroke="#ba0f27" stroke-width="1.65" fill="#ba0f27"  />
<circle cx="96.95454545454547" cy="102.07557322387648" r="1.65" stroke="#F7F7F7" stroke-width="1.65" fill="#F7F7F7" />
<circle cx="96.95454545454547" cy="102.07557322387648" r="1.65" stroke="#ba0f27" stroke-width="1.65" fill="#ba0f27"  />
<circle cx="117.25909090909092" cy="102.07557322387648" r="1.65" stroke="#F7F7F7" stroke-width="1.65" fill="#F7F7F7" />
<circle cx="117.25909090909092" cy="102.07557322387648" r="1.65" stroke="#ba0f27" stroke-width="1.65" fill="#ba0f27"  />
<circle cx="137.56363636363636" cy="102.07557322387648" r="1.65" stroke="#F7F7F7" stroke-width="1.65" fill="#F7F7F7" />
<circle cx="137.56363636363636" cy="102.07557322387648" r="1.65" stroke="#ba0f27" stroke-width="1.65" fill="#ba0f27"  />
<circle cx="157.86818181818182" cy="135.7778661193825" r="1.65" stroke="#F7F7F7" stroke-width="1.65" fill="#F7F7F7" />
<circle cx="157.86818181818182" cy="135.7778661193825" r="1.65" stroke="#ba0f27" stroke-width="1.65" fill="#ba0f27"  />
<circle cx="178.1727272727273" cy="127.35229289550597" r="1.65" stroke="#F7F7F7" stroke-width="1.65" fill="#F7F7F7" />
<circle cx="178.1727272727273" cy="127.35229289550597" r="1.65" stroke="#ba0f27" stroke-width="1.65" fill="#ba0f27"  />
<circle cx="198.47727272727275" cy="127.35229289550597" r="1.65" stroke="#F7F7F7" stroke-width="1.65" fill="#F7F7F7" />
<circle cx="198.47727272727275" cy="127.35229289550597" r="1.65" stroke="#ba0f27" stroke-width="1.65" fill="#ba0f27"  />
<circle cx="218.78181818181818" cy="118.9267196716295" r="1.65" stroke="#F7F7F7" stroke-width="1.65" fill="#F7F7F7" />
<circle cx="218.78181818181818" cy="118.9267196716295" r="1.65" stroke="#ba0f27" stroke-width="1.65" fill="#ba0f27"  />
<circle cx="239.08636363636364" cy="127.35229289550597" r="1.65" stroke="#F7F7F7" stroke-width="1.65" fill="#F7F7F7" />
<circle cx="239.08636363636364" cy="127.35229289550597" r="1.65" stroke="#ba0f27" stroke-width="1.65" fill="#ba0f27"  />
<circle cx="259.3909090909091" cy="135.7778661193825" r="1.65" stroke="#F7F7F7" stroke-width="1.65" fill="#F7F7F7" />
<circle cx="259.3909090909091" cy="135.7778661193825" r="1.65" stroke="#ba0f27" stroke-width="1.65" fill="#ba0f27"  />
<circle cx="279.6954545454546" cy="135.7778661193825" r="1.65" stroke="#F7F7F7" stroke-width="1.65" fill="#F7F7F7" />
<circle cx="279.6954545454546" cy="135.7778661193825" r="1.65" stroke="#ba0f27" stroke-width="1.65" fill="#ba0f27"  />
<circle cx="300.0" cy="135.7778661193825" r="1.65" stroke="#F7F7F7" stroke-width="1.65" fill="#F7F7F7" />
<circle cx="300.0" cy="135.7778661193825" r="1.65" stroke="#ba0f27" stroke-width="1.65" fill="#ba0f27"  />
<circle cx="320.30454545454546" cy="127.35229289550597" r="1.65" stroke="#F7F7F7" stroke-width="1.65" fill="#F7F7F7" />
<circle cx="320.30454545454546" cy="127.35229289550597" r="1.65" stroke="#ba0f27" stroke-width="1.65" fill="#ba0f27"  />
<circle cx="340.6090909090909" cy="135.7778661193825" r="1.65" stroke="#F7F7F7" stroke-width="1.65" fill="#F7F7F7" />
<circle cx="340.6090909090909" cy="135.7778661193825" r="1.65" stroke="#ba0f27" stroke-width="1.65" fill="#ba0f27"  />
<circle cx="360.91363636363633" cy="154.8567341275285" r="1.65" stroke="#F7F7F7" stroke-width="1.65" fill="#F7F7F7" />
<circle cx="360.91363636363633" cy="154.8567341275285" r="1.65" stroke="#ba0f27" stroke-width="1.65" fill="#ba0f27"  />
<circle cx="381.21818181818185" cy="172.2943004716633" r="1.65" stroke="#F7F7F7" stroke-width="1.65" fill="#F7F7F7" />
<circle cx="381.21818181818185" cy="172.2943004716633" r="1.65" stroke="#ba0f27" stroke-width="1.65" fill="#ba0f27"  />
<circle cx="401.52272727272725" cy="184.22069937006046" r="1.65" stroke="#F7F7F7" stroke-width="1.65" fill="#F7F7F7" />
<circle cx="401.52272727272725" cy="184.22069937006046" r="1.65" stroke="#ba0f27" stroke-width="1.65" fill="#ba0f27"  />
<circle cx="421.82727272727277" cy="197.59966709225395" r="1.65" stroke="#F7F7F7" stroke-width="1.65" fill="#F7F7F7" />
<circle cx="421.82727272727277" cy="197.59966709225395" r="1.65" stroke="#ba0f27" stroke-width="1.65" fill="#ba0f27"  />
<circle cx="442.1318181818182" cy="229.61431767101752" r="1.65" stroke="#F7F7F7" stroke-width="1.65" fill="#F7F7F7" />
<circle cx="442.1318181818182" cy="229.61431767101752" r="1.65" stroke="#ba0f27" stroke-width="1.65" fill="#ba0f27"  />
<circle cx="462.4363636363637" cy="222.25794968925092" r="1.65" stroke="#F7F7F7" stroke-width="1.65" fill="#F7F7F7" />
<circle cx="462.4363636363637" cy="222.25794968925092" r="1.65" stroke="#ba0f27" stroke-width="1.65" fill="#ba0f27"  />
<circle cx="482.7409090909091" cy="220.79189994829642" r="1.65" stroke="#F7F7F7" stroke-width="1.65" fill="#F7F7F7" />
<circle cx="482.7409090909091" cy="220.79189994829642" r="1.65" stroke="#ba0f27" stroke-width="1.65" fill="#ba0f27"  />
<circle cx="503.0454545454545" cy="253.35" r="1.65" stroke="#F7F7F7" stroke-width="1.65" fill="#F7F7F7" />
<circle cx="503.0454545454545" cy="253.35" r="1.65" stroke="#ba0f27" stroke-width="1.65" fill="#ba0f27"  />
<circle cx="523.35" cy="241.1531402011164" r="1.65" stroke="#F7F7F7" stroke-width="1.65" fill="#F7F7F7" />
<circle cx="523.35" cy="241.1531402011164" r="1.65" stroke="#ba0f27" stroke-width="1.65" fill="#ba0f27"  />
<polyline points="76.65,93.65 96.95454545454547,96.18492063492064" style="fill:none;stroke:#000000;stroke-width:2" stroke-dasharray="3,1"  />
<polyline points="96.95454545454547,96.18492063492064 117.25909090909092,106.32460317460318" style="fill:none;stroke:#000000;stroke-width:2" stroke-dasharray="3,1"  />
<polyline points="117.25909090909092,106.32460317460318 137.56363636363636,108.85952380952381" style="fill:none;stroke:#000000;stroke-width:2" stroke-dasharray="3,1"  />
<polyline points="137.56363636363636,108.85952380952381 157.86818181818182,116.46428571428572" style="fill:none;stroke:#000000;stroke-width:2" stroke-dasharray="3,1"  />
<polyline points="157.86818181818182,116.46428571428572 178.1727272727273,124.06904761904762" style="fill:none;stroke:#000000;stroke-width:2" stroke-dasharray="3,1"  />
<polyline points="178.1727272727273,124.06904761904762 198.47727272727275,124.06904761904762" style="fill:none;stroke:#000000;stroke-width:2" stroke-dasharray="3,1"  />
<polyline points="198.47727272727275,124.06904761904762 218.78181818181818,124.06904761904762" style="fill:none;stroke:#000000;stroke-width:2" stroke-dasharray="3,1"  />
<polyline points="218.78181818181818,124.06904761904762 239.08636363636364,129.13888888888889" style="fill:none;stroke:#000000;stroke-width:2" stroke-dasharray="3,1"  />
<polyline points="239.08636363636364,129.13888888888889 259.3909090909091,134.20873015873016" style="fill:none;stroke:#000000;stroke-width:2" stroke-dasharray="3,1"  />
<polyline points="259.3909090909091,134.20873015873016 279.6954545454546,134.20873015873016" style="fill:none;stroke:#000000;stroke-width:2" stroke-dasharray="3,1"  />
<polyline points="279.6954545454546,134.20873015873016 300.0,144.3484126984127" style="fill:none;stroke:#000000;stroke-width:2" stroke-dasharray="3,1"  />
<polyline points="300.0,144.3484126984127 320.30454545454546,154.48809523809524" style="fill:none;stroke:#000000;stroke-width:2" stroke-dasharray="3,1"  />
<polyline points="320.30454545454546,154.48809523809524 340.6090909090909,164.6277777777778" style="fill:none;stroke:#000000;stroke-width:2" stroke-dasharray="3,1"  />
<polyline points="340.6090909090909,164.6277777777778 360.91363636363633,177.30238095238096" style="fill:none;stroke:#000000;stroke-width:2" stroke-dasharray="3,1"  />
<polyline points="360.91363636363633,177.30238095238096 381.21818181818185,192.51190476190476" style="fill:none;stroke:#000000;stroke-width:2" stroke-dasharray="3,1"  />
<polyline points="381.21818181818185,192.51190476190476 401.52272727272725,200.11666666666667" style="fill:none;stroke:#000000;stroke-width:2" stroke-dasharray="3,1"  />
<polyline points="401.52272727272725,200.11666666666667 421.82727272727277,205.18650793650795" style="fill:none;stroke:#000000;stroke-width:2" stroke-dasharray="3,1"  />
<polyline points="421.82727272727277,205.18650793650795 442.1318181818182,215.32619047619048" style="fill:none;stroke:#000000;stroke-width:2" stroke-dasharray="3,1"  />
<polyline points="442.1318181818182,215.32619047619048 462.4363636363637,225.46587301587303" style="fill:none;stroke:#000000;stroke-width:2" stroke-dasharray="3,1"  />
<polyline points="462.4363636363637,225.46587301587303 482.7409090909091,235.60555555555555" style="fill:none;stroke:#000000;stroke-width:2" stroke-dasharray="3,1"  />
<polyline points="482.7409090909091,235.60555555555555 503.0454545454545,235.60555555555555" style="fill:none;stroke:#000000;stroke-width:2" stroke-dasharray="3,1"  />
<polyline points="503.0454545454545,235.60555555555555 523.35,253.35" style="fill:none;stroke:#000000;stroke-width:2" stroke-dasharray="3,1"  />
<polygon points="74.67,93.65 76.65,91.67 78.63000000000001,93.65 76.65,95.63000000000001" stroke="#F7F7F7" stroke-width="1.65" fill="#F7F7F7"  />
<polygon points="74.67,93.65 76.65,91.67 78.63000000000001,93.65 76.65,95.63000000000001" stroke="#000000" stroke-width="1.65" fill="#000000"  />
<polygon points="94.97454545454546,96.18492063492064 96.95454545454547,94.20492063492064 98.93454545454547,96.18492063492064 96.95454545454547,98.16492063492065" stroke="#F7F7F7" stroke-width="1.65" fill="#F7F7F7"  />
<polygon points="94.97454545454546,96.18492063492064 96.95454545454547,94.20492063492064 98.93454545454547,96.18492063492064 96.95454545454547,98.16492063492065" stroke="#000000" stroke-width="1.65" fill="#000000"  />
<polygon points="115.27909090909091,106.32460317460318 117.25909090909092,104.34460317460318 119.23909090909092,106.32460317460318 117.25909090909092,108.30460317460319" stroke="#F7F7F7" stroke-width="1.65" fill="#F7F7F7"  />
<polygon points="115.27909090909091,106.32460317460318 117.25909090909092,104.34460317460318 119.23909090909092,106.32460317460318 117.25909090909092,108.30460317460319" stroke="#000000" stroke-width="1.65" fill="#000000"  />
<polygon points="135.58363636363637,108.85952380952381 137.56363636363636,106.8795238095238 139.54363636363635,108.85952380952381 137.56363636363636,110.83952380952381" stroke="#F7F7F7" stroke-width="1.65" fill="#F7F7F7"  />
<polygon points="135.58363636363637,108.85952380952381 137.56363636363636,106.8795238095238 139.54363636363635,108.85952380952381 137.56363636363636,110.83952380952381" stroke="#000000" stroke-width="1.65" fill="#000000"  />
<polygon points="155.88818181818183,116.46428571428572 157.86818181818182,114.48428571428572 159.8481818181818,116.46428571428572 157.86818181818182,118.44428571428573" stroke="#F7F7F7" stroke-width="1.65" fill="#F7F7F7"  />
<polygon points="155.88818181818183,116.46428571428572 157.86818181818182,114.48428571428572 159.8481818181818,116.46428571428572 157.86818181818182,118.44428571428573" stroke="#000000" stroke-width="1.65" fill="#000000"  />
<polygon points="176.1927272727273,124.06904761904762 178.1727272727273,122.08904761904762 180.15272727272728,124.06904761904762 178.1727272727273,126.04904761904763" stroke="#F7F7F7" stroke-width="1.65" fill="#F7F7F7"  />
<polygon points="176.1927272727273,124.06904761904762 178.1727272727273,122.08904761904762 180.15272727272728,124.06904761904762 178.1727272727273,126.04904761904763" stroke="#000000" stroke-width="1.65" fill="#000000"  />
<polygon points="196.49727272727276,124.06904761904762 198.47727272727275,122.08904761904762 200.45727272727274,124.06904761904762 198.47727272727275,126.04904761904763" stroke="#F7F7F7" stroke-width="1.65" fill="#F7F7F7"  />
<polygon points="196.49727272727276,124.06904761904762 198.47727272727275,122.08904761904762 200.45727272727274,124.06904761904762 198.47727272727275,126.04904761904763" stroke="#000000" stroke-width="1.65" fill="#000000"  />
<polygon points="216.8018181818182,124.06904761904762 218.78181818181818,122.08904761904762 220.76181818181817,124.06904761904762 218.78181818181818,126.04904761904763" stroke="#F7F7F7" stroke-width="1.65" fill="#F7F7F7"  />
<polygon points="216.8018181818182,124.06904761904762 218.78181818181818,122.08904761904762 220.76181818181817,124.06904761904762 218.78181818181818,126.04904761904763" stroke="#000000" stroke-width="1.65" fill="#000000"  />
<polygon points="237.10636363636365,129.13888888888889 239.08636363636364,127.15888888888888 241.06636363636363,129.13888888888889 239.08636363636364,131.11888888888888" stroke="#F7F7F7" stroke-width="1.65" fill="#F7F7F7"  />
<polygon points="237.10636363636365,129.13888888888889 239.08636363636364,127.15888888888888 241.06636363636363,129.13888888888889 239.08636363636364,131.11888888888888" stroke="#000000" stroke-width="1.65" fill="#000000"  />
<polygon points="257.41090909090906,134.20873015873016 259.3909090909091,132.22873015873017 261.3709090909091,134.20873015873016 259.3909090909091,136.18873015873015" stroke="#F7F7F7" stroke-width="1.65" fill="#F7F7F7"  />
<polygon points="257.41090909090906,134.20873015873016 259.3909090909091,132.22873015873017 261.3709090909091,134.20873015873016 259.3909090909091,136.18873015873015" stroke="#000000" stroke-width="1.65" fill="#000000"  />
<polygon points="277.7154545454546,134.20873015873016 279.6954545454546,132.22873015873017 281.6754545454546,134.20873015873016 279.6954545454546,136.18873015873015" stroke="#F7F7F7" stroke-width="1.65" fill="#F7F7F7"  />
<polygon points="277.7154545454546,134.20873015873016 279.6954545454546,132.22873015873017 281.6754545454546,134.20873015873016 279.6954545454546,136.18873015873015" stroke="#000000" stroke-width="1.65" fill="#000000"  />
<polygon points="298.02,144.3484126984127 300.0,142.3684126984127 301.98,144.3484126984127 300.0,146.32841269841268" stroke="#F7F7F7" stroke-width="1.65" fill="#F7F7F7"  />
<polygon points="298.02,144.3484126984127 300.0,142.3684126984127 301.98,144.3484126984127 300.0,146.32841269841268" stroke="#000000" stroke-width="1.65" fill="#000000"  />
<polygon points="318.32454545454544,154.48809523809524 320.30454545454546,152.50809523809525 322.2845454545455,154.48809523809524 320.30454545454546,156.46809523809523" stroke="#F7F7F7" stroke-width="1.65" fill="#F7F7F7"  />
<polygon points="318.32454545454544,154.48809523809524 320.30454545454546,152.50809523809525 322.2845454545455,154.48809523809524 320.30454545454546,156.46809523809523" stroke="#000000" stroke-width="1.65" fill="#000000"  />
<polygon points="338.6290909090909,164.6277777777778 340.6090909090909,162.6477777777778 342.58909090909094,164.6277777777778 340.6090909090909,166.60777777777778" stroke="#F7F7F7" stroke-width="1.65" fill="#F7F7F7"  />
<polygon points="338.6290909090909,164.6277777777778 340.6090909090909,162.6477777777778 342.58909090909094,164.6277777777778 340.6090909090909,166.60777777777778" stroke="#000000" stroke-width="1.65" fill="#000000"  />
<polygon points="358.9336363636363,177.30238095238096 360.91363636363633,175.32238095238097 362.89363636363635,177.30238095238096 360.91363636363633,179.28238095238095" stroke="#F7F7F7" stroke-width="1.65" fill="#F7F7F7"  />
<polygon points="358.9336363636363,177.30238095238096 360.91363636363633,175.32238095238097 362.89363636363635,177.30238095238096 360.91363636363633,179.28238095238095" stroke="#000000" stroke-width="1.65" fill="#000000"  />
<polygon points="379.23818181818183,192.51190476190476 381.21818181818185,190.53190476190477 383.19818181818187,192.51190476190476 381.21818181818185,194.49190476190475" stroke="#F7F7F7" stroke-width="1.65" fill="#F7F7F7"  />
<polygon points="379.23818181818183,192.51190476190476 381.21818181818185,190.53190476190477 383.19818181818187,192.51190476190476 381.21818181818185,194.49190476190475" stroke="#000000" stroke-width="1.65" fill="#000000"  />
<polygon points="399.54272727272723,200.11666666666667 401.52272727272725,198.13666666666668 403.50272727272727,200.11666666666667 401.52272727272725,202.09666666666666" stroke="#F7F7F7" stroke-width="1.65" fill="#F7F7F7"  />
<polygon points="399.54272727272723,200.11666666666667 401.52272727272725,198.13666666666668 403.50272727272727,200.11666666666667 401.52272727272725,202.09666666666666" stroke="#000000" stroke-width="1.65" fill="#000000"  />
<polygon points="419.84727272727275,205.18650793650795 421.82727272727277,203.20650793650796 423.8072727272728,205.18650793650795 421.82727272727277,207.16650793650794" stroke="#F7F7F7" stroke-width="1.65" fill="#F7F7F7"  />
<polygon points="419.84727272727275,205.18650793650795 421.82727272727277,203.20650793650796 423.8072727272728,205.18650793650795 421.82727272727277,207.16650793650794" stroke="#000000" stroke-width="1.65" fill="#000000"  />
<polygon points="440.15181818181816,215.32619047619048 442.1318181818182,213.3461904761905 444.1118181818182,215.32619047619048 442.1318181818182,217.30619047619047" stroke="#F7F7F7" stroke-width="1.65" fill="#F7F7F7"  />
<polygon points="440.15181818181816,215.32619047619048 442.1318181818182,213.3461904761905 444.1118181818182,215.32619047619048 442.1318181818182,217.30619047619047" stroke="#000000" stroke-width="1.65" fill="#000000"  />
<polygon points="460.4563636363637,225.46587301587303 462.4363636363637,223.48587301587304 464.4163636363637,225.46587301587303 462.4363636363637,227.44587301587302" stroke="#F7F7F7" stroke-width="1.65" fill="#F7F7F7"  />
<polygon points="460.4563636363637,225.46587301587303 462.4363636363637,223.48587301587304 464.4163636363637,225.46587301587303 462.4363636363637,227.44587301587302" stroke="#000000" stroke-width="1.65" fill="#000000"  />
<polygon points="480.7609090909091,235.60555555555555 482.7409090909091,233.62555555555556 484.7209090909091,235.60555555555555 482.7409090909091,237.58555555555554" stroke="#F7F7F7" stroke-width="1.65" fill="#F7F7F7"  />
<polygon points="480.7609090909091,235.60555555555555 482.7409090909091,233.62555555555556 484.7209090909091,235.60555555555555 482.7409090909091,237.58555555555554" stroke="#000000" stroke-width="1.65" fill="#000000"  />
<polygon points="501.0654545454545,235.60555555555555 503.0454545454545,233.62555555555556 505.0254545454545,235.60555555555555 503.0454545454545,237.58555555555554" stroke="#F7F7F7" stroke-width="1.65" fill="#F7F7F7"  />
<polygon points="501.0654545454545,235.60555555555555 503.0454545454545,233.62555555555556 505.0254545454545,235.60555555555555 503.0454545454545,237.58555555555554" stroke="#000000" stroke-width="1.65" fill="#000000"  />
<polygon points="521.37,253.35 523.35,251.37 525.33,253.35 523.35,255.32999999999998" stroke="#F7F7F7" stroke-width="1.65" fill="#F7F7F7"  />
<polygon points="521.37,253.35 523.35,251.37 525.33,253.35 523.35,255.32999999999998" stroke="#000000" stroke-width="1.65" fill="#000000"  />
</svg>